<?xml version="1.0" encoding="UTF-8"?>
<svg xmlns="http://www.w3.org/2000/svg" viewBox="0 0 841.9 595.3">
  <g fill="#61DAFB">
    <path d="M666.3 296.5c0-25.1-20.4-45.5-45.5-45.5s-45.5 20.4-45.5 45.5 20.4 45.5 45.5 45.5 45.5-20.4 45.5-45.5zm-45.5 27.5c-15.2 0-27.5-12.3-27.5-27.5s12.3-27.5 27.5-27.5 27.5 12.3 27.5 27.5-12.3 27.5-27.5 27.5z"/>
    <path d="M667.2 370.1c-6.2-10.7-13.2-21.1-20.9-31.1-7.7-10-16.1-19.5-25.1-28.3-9-8.8-18.6-16.9-28.7-24.2-10.1-7.3-20.7-13.8-31.7-19.4-11-5.6-22.4-10.3-34.1-14.1-11.7-3.8-23.7-6.7-35.9-8.7-12.2-2-24.6-3-37.1-3-12.5 0-24.9 1-37.1 3-12.2 2-24.2 4.9-35.9 8.7-11.7 3.8-23.1 8.5-34.1 14.1-11 5.6-21.6 12.1-31.7 19.4-10.1 7.3-19.7 15.4-28.7 24.2-9 8.8-17.4 18.3-25.1 28.3-7.7 10-14.7 20.4-20.9 31.1-6.2 10.7-11.6 21.8-16.1 33.2-4.5 11.4-8.1 23.1-10.7 35.1-2.6 12-4.2 24.2-4.7 36.6-.5 12.4-.1 24.9 1.2 37.4 1.3 12.5 3.5 24.9 6.6 37.2 3.1 12.3 7.1 24.4 12 36.2 4.9 11.8 10.7 23.2 17.3 34.2 6.6 11 14.1 21.5 22.4 31.4 8.3 9.9 17.4 19.2 27.2 27.8 9.8 8.6 20.3 16.5 31.4 23.7 11.1 7.2 22.7 13.6 34.8 19.2 12.1 5.6 24.6 10.3 37.4 14.1 12.8 3.8 25.9 6.7 39.2 8.7 13.3 2 26.8 3 40.4 3 13.6 0 27.1-1 40.4-3 13.3-2 26.4-4.9 39.2-8.7 12.8-3.8 25.3-8.5 37.4-14.1 12.1-5.6 23.7-12 34.8-19.2 11.1-7.2 21.6-15.1 31.4-23.7 9.8-8.6 18.9-17.9 27.2-27.8 8.3-9.9 15.8-20.4 22.4-31.4 6.6-11 12.4-22.4 17.3-34.2 4.9-11.8 8.9-23.9 12-36.2 3.1-12.3 5.3-24.7 6.6-37.2 1.3-12.5 1.7-25 1.2-37.4-.5-12.4-2.1-24.6-4.7-36.6-2.6-12-6.2-23.7-10.7-35.1-4.5-11.4-9.9-22.5-16.1-33.2z"/>
  </g>
</svg>
